<?xml version="1.0" encoding="UTF-8"?>
<svg viewBox="117 129 266 241" xmlns="http://www.w3.org/2000/svg">
  <path
    fill="#ad00c7"
    d="m 246.56623,123.60742 -2.0509,181.50782 -48.76901,-21.7461 -0.0996,-67.68945 -54.47341,-27.82031 1.28209,109.11523 145.86087,60.27149 v 0.002 c 1.4e-4,1.2e-4 0.0147,0.009 0.0173,0.01 h 0.002 l 0.002,0.002 h 0.002 c 0.5236,0.0795 1.0565,0.0953 1.58558,0.1251 1.06023,0.0453 2.54277,0.0466 4.09964,-0.14063 1.55687,-0.18721 3.18992,-0.56122 4.5501,-1.27148 1.36017,-0.71026 2.45123,-1.7598 2.91068,-3.28711 l 1.78019,-181.72852 48.77117,21.74805 0.0996,67.6875 54.47124,27.82031 -1.28208,-109.11523 -145.90203,-60.28711 z"
    transform="translate(-23.891 11.889)"
  />
</svg>
