<?xml version="1.0" encoding="UTF-8"?>

<!-- <svg width="98" height="98" viewBox="0 0 48 48" xmlns="http://www.w3.org/2000/svg">
<path d="M 22.348 8.965 L 36.872 20.722 L 36.795 32.061 L 31.408 28.419 C 31.408 30.421 31.129 24.005 31.129 23.909 L 27.793 21.052 L 28.256 38.508 C 27.256 39.508 26.348 38.965 26.348 38.965 L 11.431 25.532 L 11.416 15.301 L 17.233 19.294 L 17.506 22.611 L 21.106 25.317 L 20.832 9.148 C 20.607 9.51 21.055 8.135 22.348 8.965" stroke="#ffffff" stroke-width="1" fill="purple"></path> -->

<svg xmlns="http://www.w3.org/2000/svg" viewBox="0 0 500 500" xmlns:bx="https://boxy-svg.com">

  <g style="" transform="matrix(0.901852, 0, 0, 1, 9.655234, 0)">
    <path style="stroke: rgb(255, 255, 255); stroke-width: 0.1; fill: rgba(205, 0, 205, 0.8);" d="
    M 258.237 121.019 
    L 404.101 181.29 
    L 405.379 290.292 
    L 351.01 262.525 
    L 350.913 194.838 
    L 302.048 173.046 
    L 300.002 354.69
    M 245.425 125.699
    C 245.104 122.232 257.43 118.887 258.237 121.019
    M 287.19 359.37 
    C 286.659 359.329 298.442 360.884 300.257 354.833


    M 287.19 359.37 
    L 141.326 299.099 
    L 140.048 190.097 
    L 194.417 217.864 
    L 194.514 285.551 
    L 243.379 307.343 
    L 245.425 125.699 Z
    
    "></path>

    
    <!-- <path style="stroke: rgb(250, 250, 250); stroke-width: 0.1; transform-box: fill-box;  transform-origin: 50% 50%; fill: rgba(205, 0, 205, 0.8);" 
    d="
    M 140.81 124.63 
    L 286.674 184.901 
    L 287.952 293.903 
    L 233.583 266.136 
    L 233.486 198.449 
    L 184.621 176.657 
    L 182.575 358.301
    Z" transform="matrix(-1, 0, 0, -1, -0.000029, 0.000031)"></path> -->

  </g>
  <!-- <g transform="matrix(-1, 0, 0, -1, 436.518292, 508.053268)" style=""></g> -->

</svg>